<?xml version="1.0" encoding="UTF-8" standalone="no"?>
<svg
   zoomAndPan="magnify"
   preserveAspectRatio="xMidYMid"
   version="1.0"
   viewBox="35.4 116.27 393.38804 142.24831"
   width="150.1956"
   height="54.180004"
   id="svg110"
   sodipodi:docname="6-cropped.svg"
   xmlns:inkscape="http://www.inkscape.org/namespaces/inkscape"
   xmlns:sodipodi="http://sodipodi.sourceforge.net/DTD/sodipodi-0.dtd"
   xmlns="http://www.w3.org/2000/svg"
   xmlns:svg="http://www.w3.org/2000/svg">
  <sodipodi:namedview
     id="namedview110"
     pagecolor="#ffffff"
     bordercolor="#000000"
     borderopacity="0.25"
     inkscape:showpageshadow="2"
     inkscape:pageopacity="0.0"
     inkscape:pagecheckerboard="0"
     inkscape:deskcolor="#d1d1d1"
     showgrid="true">
    <inkscape:grid
       id="grid110"
       units="px"
       originx="43.906525"
       originy="15.992059"
       spacingx="2.6191715"
       spacingy="2.6254762"
       empcolor="#0099e5"
       empopacity="0.30196078"
       color="#0099e5"
       opacity="0.14901961"
       empspacing="5"
       enabled="true"
       visible="true" />
    <inkscape:page
       x="0"
       y="0"
       width="393.38803"
       height="142.24831"
       id="page2"
       margin="0"
       bleed="0" />
  </sodipodi:namedview>
  <defs
     id="defs2">
    <clipPath
       id="9000776c3e">
      <rect
         x="0"
         width="310"
         y="0"
         height="42"
         id="rect1" />
    </clipPath>
    <clipPath
       id="84c1afd584">
      <path
         d="m 105.32031,164 h 164.25 v 17 h -164.25 z m 0,0"
         clip-rule="nonzero"
         id="path1" />
    </clipPath>
    <clipPath
       id="0a8d85f369">
      <path
         d="m 173,116.29297 h 15 V 131 h -15 z m 0,0"
         clip-rule="nonzero"
         id="path2" />
    </clipPath>
  </defs>
  <g
     transform="matrix(1.2906058,0,0,1.2906058,30.623223,206.2343)"
     id="g106">
    <g
       clip-path="url(#9000776c3e)"
       id="g105">
      <g
         fill="#81a969"
         fill-opacity="0.4"
         id="g5">
        <g
           transform="translate(1.478727,30.589334)"
           id="g4">
          <g
             id="g3">
            <path
               d="M 15.75,0.359375 C 12.914062,0.359375 10.457031,-0.125 8.375,-1.09375 6.300781,-2.0625 4.707031,-3.46875 3.59375,-5.3125 2.488281,-7.164062 1.9375,-9.429688 1.9375,-12.109375 c 0,-1.8125 0.335938,-3.507813 1.015625,-5.09375 0.675781,-1.59375 1.65625,-3 2.9375,-4.21875 1.28125,-1.21875 2.804687,-2.171875 4.578125,-2.859375 1.78125,-0.6875 3.769531,-1.03125 5.96875,-1.03125 0.882812,0 1.84375,0.05859 2.875,0.171875 1.039062,0.117187 2.03125,0.304687 2.96875,0.5625 0.945312,0.25 1.734375,0.589844 2.359375,1.015625 l 0.140625,4.71875 -0.421875,0.109375 c -0.480469,-1.238281 -1.1875,-2.289063 -2.125,-3.15625 -0.929687,-0.875 -1.96875,-1.550781 -3.125,-2.03125 -1.15625,-0.476563 -2.359375,-0.71875 -3.609375,-0.71875 -1.90625,0 -3.59375,0.421875 -5.0625,1.265625 -1.46875,0.835938 -2.621094,2.058594 -3.453125,3.671875 -0.835937,1.605469 -1.25,3.601563 -1.25,5.984375 0,1.71875 0.25,3.382812 0.75,4.984375 0.5,1.59375 1.21875,3.023437 2.15625,4.28125 0.945313,1.25 2.109375,2.242187 3.484375,2.96875 1.375,0.730469 2.929688,1.09375 4.671875,1.09375 2,0 3.679687,-0.5625 5.046875,-1.6875 1.363281,-1.125 2.367188,-2.613281 3.015625,-4.46875 l 0.453125,0.0625 -0.5625,5.125 c -0.960938,0.429687 -2.152344,0.824219 -3.578125,1.1875 -1.417969,0.351563 -3.226563,0.53125 -5.421875,0.53125 z m 0,0"
               id="path3" />
          </g>
        </g>
      </g>
      <g
         fill="#81a969"
         fill-opacity="0.4"
         id="g8">
        <g
           transform="translate(27.65729,30.589334)"
           id="g7">
          <g
             id="g6">
            <path
               d="M 14.6875,0 C 13.726562,0 13.25,-0.476562 13.25,-1.4375 V -7.34375 C 12.914062,-5.957031 12.414062,-4.675781 11.75,-3.5 11.082031,-2.332031 10.257812,-1.394531 9.28125,-0.6875 8.300781,0.0078125 7.1875,0.359375 5.9375,0.359375 c -1.3125,0 -2.453125,-0.40625 -3.421875,-1.21875 -0.960937,-0.8125 -1.4375,-1.96875 -1.4375,-3.46875 0,-1.25 0.375,-2.257813 1.125,-3.03125 0.75,-0.769531 1.742187,-1.414063 2.984375,-1.9375 1.25,-0.53125 2.613281,-1 4.09375,-1.40625 L 13.25,-11.859375 C 13.22656,-13.617188 12.78125,-14.875 11.90625,-15.625 c -0.875,-0.757812 -1.980469,-1.140625 -3.3125,-1.140625 -1,0 -1.992188,0.234375 -2.96875,0.703125 -0.980469,0.46875 -1.921875,1.25 -2.828125,2.34375 L 2.4375,-14.03125 c 1,-1.25 2.175781,-2.25 3.53125,-3 1.363281,-0.75 2.859375,-1.125 4.484375,-1.125 2.175781,0 3.78125,0.570312 4.8125,1.703125 1.039063,1.136719 1.5625,2.804687 1.5625,5 v 6.90625 c 0,1.292969 0.08594,2.246094 0.265625,2.859375 0.1875,0.605469 0.578125,1 1.171875,1.1875 V 0 Z M 4.40625,-5.59375 c 0,1.179688 0.347656,2.03125 1.046875,2.5625 0.707031,0.523438 1.46875,0.78125 2.28125,0.78125 0.882813,0 1.664063,-0.269531 2.34375,-0.8125 0.6875,-0.539062 1.257813,-1.234375 1.71875,-2.078125 0.46875,-0.84375 0.828125,-1.726563 1.078125,-2.65625 0.25,-0.9375 0.375,-1.8125 0.375,-2.625 v -0.9375 L 9.421875,-10.25 C 8.992188,-10.125 8.5,-9.945312 7.9375,-9.71875 7.375,-9.5 6.820312,-9.207031 6.28125,-8.84375 5.75,-8.488281 5.300781,-8.039062 4.9375,-7.5 4.582031,-6.96875 4.40625,-6.332031 4.40625,-5.59375 Z m 0,0"
               id="path5" />
          </g>
        </g>
      </g>
      <g
         fill="#81a969"
         fill-opacity="0.4"
         id="g11">
        <g
           transform="translate(45.921364,30.589334)"
           id="g10">
          <g
             id="g9">
            <path
               d="M 1,0 V -0.5 C 1.59375,-0.6875 1.976562,-1.082031 2.15625,-1.6875 2.34375,-2.300781 2.4375,-3.253906 2.4375,-4.546875 v -8.234375 c 0,-1.050781 -0.125,-1.742188 -0.375,-2.078125 C 1.8125,-15.191406 1.457031,-15.457031 1,-15.65625 v -0.5 l 4.734375,-2.078125 0.359375,0.296875 v 4.328125 c 0.539062,-1.289063 1.410156,-2.34375 2.609375,-3.15625 0.664063,-0.46875 1.347656,-0.816406 2.046875,-1.046875 0.707031,-0.226562 1.492188,-0.34375 2.359375,-0.34375 0.613281,0 1.148437,0.08594 1.609375,0.25 0.457031,0.167969 0.6875,0.445312 0.6875,0.828125 0,0.261719 -0.09375,0.578125 -0.28125,0.953125 -0.179688,0.367188 -0.449219,0.6875 -0.8125,0.96875 -0.355469,0.273438 -0.804688,0.40625 -1.34375,0.40625 -0.5,0 -1.117188,-0.08594 -1.84375,-0.265625 -0.730469,-0.1875 -1.667969,-0.457031 -2.8125,-0.8125 -0.460938,0.386719 -0.933594,0.949219 -1.421875,1.6875 -0.492187,0.742187 -0.757813,1.5625 -0.796875,2.46875 v 7.125 c 0,1.292969 0.085938,2.246094 0.265625,2.859375 0.175781,0.605469 0.5625,1 1.15625,1.1875 V 0 Z m 0,0"
               id="path8" />
          </g>
        </g>
      </g>
      <g
         fill="#81a969"
         fill-opacity="0.4"
         id="g14">
        <g
           transform="translate(61.356277,30.589334)"
           id="g13">
          <g
             id="g12">
            <path
               d="M 10.671875,0.359375 C 9.503906,0.359375 8.351562,0.1875 7.21875,-0.15625 6.082031,-0.507812 5.050781,-1.046875 4.125,-1.765625 3.207031,-2.492188 2.472656,-3.414062 1.921875,-4.53125 c -0.542969,-1.113281 -0.8125,-2.429688 -0.8125,-3.953125 0,-1.457031 0.257813,-2.773437 0.78125,-3.953125 0.53125,-1.1875 1.25,-2.203125 2.15625,-3.046875 0.90625,-0.851563 1.929687,-1.507813 3.078125,-1.96875 1.144531,-0.46875 2.328125,-0.703125 3.546875,-0.703125 1.125,0 2.238281,0.167969 3.34375,0.5 1.113281,0.335938 2.140625,0.867188 3.078125,1.59375 0.945312,0.730469 1.703125,1.65625 2.265625,2.78125 0.5625,1.117188 0.84375,2.464844 0.84375,4.046875 0,1.523437 -0.296875,2.882813 -0.890625,4.078125 -0.585938,1.199219 -1.351562,2.203125 -2.296875,3.015625 -0.9375,0.804687 -1.96875,1.421875 -3.09375,1.859375 -1.117187,0.425781 -2.199219,0.640625 -3.25,0.640625 z M 4.6875,-11.171875 c 0,1.054687 0.15625,2.199219 0.46875,3.4375 0.3125,1.242187 0.769531,2.417969 1.375,3.53125 0.613281,1.105469 1.375,2.011719 2.28125,2.71875 0.90625,0.699219 1.941406,1.046875 3.109375,1.046875 1.175781,0 2.101563,-0.296875 2.78125,-0.890625 0.675781,-0.59375 1.15625,-1.351563 1.4375,-2.28125 0.289063,-0.9375 0.4375,-1.90625 0.4375,-2.90625 0,-1.144531 -0.1875,-2.367187 -0.5625,-3.671875 -0.367187,-1.300781 -0.886719,-2.523438 -1.5625,-3.671875 C 13.773438,-15.003906 12.957031,-15.914062 12,-16.59375 c -0.960938,-0.6875 -2.011719,-0.96875 -3.15625,-0.84375 -1.023438,0.09375 -1.839844,0.449219 -2.453125,1.0625 -0.605469,0.605469 -1.042969,1.367188 -1.3125,2.28125 -0.261719,0.917969 -0.390625,1.890625 -0.390625,2.921875 z m 0,0"
               id="path11" />
          </g>
        </g>
      </g>
      <g
         fill="#81a969"
         fill-opacity="0.4"
         id="g17">
        <g
           transform="translate(82.30626,30.589334)"
           id="g16">
          <g
             id="g15">
            <path
               d="M 1.078125,0 V -0.5 C 1.671875,-0.6875 2.054688,-1.082031 2.234375,-1.6875 2.410156,-2.300781 2.5,-3.253906 2.5,-4.546875 V -23.53125 c 0,-1.050781 -0.125,-1.742188 -0.375,-2.078125 -0.25,-0.332031 -0.601562,-0.59375 -1.046875,-0.78125 v -0.5 l 4.71875,-2.078125 0.359375,0.28125 v 24.140625 c 0,1.292969 0.085938,2.246094 0.265625,2.859375 0.1875,0.605469 0.578125,1 1.171875,1.1875 V 0 Z m 0,0"
               id="path14" />
          </g>
        </g>
      </g>
      <g
         fill="#81a969"
         fill-opacity="0.4"
         id="g20">
        <g
           transform="translate(90.399677,30.589334)"
           id="g19">
          <g
             id="g18">
            <path
               d="M 1,0 V -0.5 C 1.59375,-0.6875 1.976562,-1.082031 2.15625,-1.6875 2.34375,-2.300781 2.4375,-3.253906 2.4375,-4.546875 v -8.234375 c 0,-1.050781 -0.125,-1.742188 -0.375,-2.078125 C 1.8125,-15.191406 1.457031,-15.457031 1,-15.65625 v -0.5 l 4.734375,-2.078125 0.359375,0.296875 v 13.390625 c 0,1.292969 0.085938,2.246094 0.265625,2.859375 0.175781,0.605469 0.5625,1 1.15625,1.1875 V 0 Z m 0.609375,-21.875 c 0,-0.695312 0.238281,-1.285156 0.71875,-1.765625 0.476563,-0.476563 1.050781,-0.71875 1.71875,-0.71875 0.71875,0 1.300781,0.242187 1.75,0.71875 0.457031,0.480469 0.6875,1.070313 0.6875,1.765625 0,0.667969 -0.234375,1.242188 -0.703125,1.71875 -0.46875,0.46875 -1.046875,0.703125 -1.734375,0.703125 -0.667969,0 -1.242187,-0.234375 -1.71875,-0.703125 -0.480469,-0.476562 -0.71875,-1.050781 -0.71875,-1.71875 z m 0,0"
               id="path17" />
          </g>
        </g>
      </g>
      <g
         fill="#81a969"
         fill-opacity="0.4"
         id="g23">
        <g
           transform="translate(98.278217,30.589334)"
           id="g22">
          <g
             id="g21">
            <path
               d="M 1,0 V -0.5 C 1.59375,-0.6875 1.976562,-1.082031 2.15625,-1.6875 2.34375,-2.300781 2.4375,-3.253906 2.4375,-4.546875 v -8.234375 c 0,-1.050781 -0.125,-1.742188 -0.375,-2.078125 C 1.8125,-15.191406 1.457031,-15.457031 1,-15.65625 v -0.5 l 4.734375,-2.078125 0.359375,0.296875 v 3 c 0.976562,-0.8125 2.097656,-1.550781 3.359375,-2.21875 1.269531,-0.664062 2.597656,-1 3.984375,-1 1.644531,0 2.972656,0.460938 3.984375,1.375 1.007813,0.917969 1.515625,2.429688 1.515625,4.53125 v 7.703125 c 0,1.292969 0.08594,2.246094 0.265625,2.859375 0.1875,0.605469 0.578125,1 1.171875,1.1875 V 0 h -6.515625 v -0.5 c 0.59375,-0.1875 0.976563,-0.582031 1.15625,-1.1875 0.1875,-0.613281 0.28125,-1.566406 0.28125,-2.859375 v -7.0625 c 0,-1.613281 -0.34375,-2.867187 -1.03125,-3.765625 -0.679687,-0.894531 -1.683594,-1.34375 -3.015625,-1.34375 -0.84375,0 -1.671875,0.203125 -2.484375,0.609375 -0.804687,0.40625 -1.695313,1 -2.671875,1.78125 v 9.78125 c 0,1.292969 0.085938,2.246094 0.265625,2.859375 0.175781,0.605469 0.5625,1 1.15625,1.1875 V 0 Z m 0,0"
               id="path20" />
          </g>
        </g>
      </g>
      <g
         fill="#81a969"
         fill-opacity="0.4"
         id="g26">
        <g
           transform="translate(118.65521,30.589334)"
           id="g25">
          <g
             id="g24">
            <path
               d="m 9.59375,0.359375 c -1,0 -1.996094,-0.179687 -2.984375,-0.53125 -0.992187,-0.363281 -1.90625,-0.898437 -2.75,-1.609375 -0.835937,-0.71875 -1.5,-1.613281 -2,-2.6875 -0.5,-1.082031 -0.75,-2.347656 -0.75,-3.796875 0,-1.53125 0.265625,-2.90625 0.796875,-4.125 0.539062,-1.21875 1.265625,-2.253906 2.171875,-3.109375 0.90625,-0.863281 1.914063,-1.519531 3.03125,-1.96875 1.113281,-0.457031 2.253906,-0.6875 3.421875,-0.6875 1.625,0 2.984375,0.324219 4.078125,0.96875 1.101563,0.648438 1.929687,1.460938 2.484375,2.4375 0.5625,0.980469 0.84375,1.996094 0.84375,3.046875 H 4.375 c -0.03125,0.1875 -0.054688,0.382813 -0.0625,0.578125 -0.011719,0.1875 -0.015625,0.375 -0.015625,0.5625 0,1.554688 0.300781,2.9375 0.90625,4.15625 0.613281,1.21875 1.472656,2.167969 2.578125,2.84375 1.113281,0.679688 2.421875,1.015625 3.921875,1.015625 1.34375,0 2.523437,-0.257813 3.546875,-0.78125 1.03125,-0.53125 1.914062,-1.210937 2.65625,-2.046875 l 0.328125,0.359375 C 17.679688,-4.179688 17,-3.351562 16.1875,-2.53125 c -0.8125,0.824219 -1.773438,1.511719 -2.875,2.0625 -1.09375,0.5507812 -2.335938,0.828125 -3.71875,0.828125 z M 4.40625,-12.21875 h 9.921875 C 14.179688,-13.195312 13.875,-14.082031 13.40625,-14.875 c -0.460938,-0.800781 -1.03125,-1.441406 -1.71875,-1.921875 -0.679688,-0.476563 -1.433594,-0.71875 -2.265625,-0.71875 -1,-0.01953 -1.851563,0.21875 -2.546875,0.71875 -0.6875,0.5 -1.234375,1.15625 -1.640625,1.96875 -0.40625,0.8125 -0.683594,1.683594 -0.828125,2.609375 z m 0,0"
               id="path23" />
          </g>
        </g>
      </g>
      <g
         fill="#81a969"
         fill-opacity="0.4"
         id="g29">
        <g
           transform="translate(137.06253,30.589334)"
           id="g28">
          <g
             id="g27" />
        </g>
      </g>
      <g
         fill="#81a969"
         fill-opacity="0.4"
         id="g32">
        <g
           transform="translate(143.50859,30.589334)"
           id="g31">
          <g
             id="g30">
            <path
               d="M 1.5,0 V -0.5 C 2.101562,-0.6875 2.492188,-1.082031 2.671875,-1.6875 2.847656,-2.300781 2.9375,-3.253906 2.9375,-4.546875 V -18.375 c 0,-1.457031 -0.089844,-2.601562 -0.265625,-3.4375 -0.179687,-0.832031 -0.449219,-1.453125 -0.8125,-1.859375 C 1.503906,-24.078125 1.050781,-24.375 0.5,-24.5625 v -0.5 h 5.375 l 8.84375,14.671875 8.421875,-14.671875 h 5.078125 v 0.5 c -0.554688,0.1875 -1.007812,0.484375 -1.359375,0.890625 -0.355469,0.40625 -0.625,1.027344 -0.8125,1.859375 -0.179687,0.835938 -0.265625,1.980469 -0.265625,3.4375 v 13.828125 c 0,1.292969 0.08594,2.246094 0.265625,2.859375 0.1875,0.605469 0.578125,1 1.171875,1.1875 V 0 H 20.5625 v -0.5 c 0.59375,-0.1875 0.976562,-0.582031 1.15625,-1.1875 0.175781,-0.613281 0.265625,-1.566406 0.265625,-2.859375 V -21.875 l -8.59375,15.078125 H 12.5625 L 3.578125,-21.5625 v 14.859375 c 0,1.460937 0.09375,2.609375 0.28125,3.453125 0.195313,0.835938 0.5,1.453125 0.90625,1.859375 0.40625,0.40625 0.914063,0.703125 1.53125,0.890625 V 0 Z m 0,0"
               id="path29" />
          </g>
        </g>
      </g>
      <g
         fill="#81a969"
         fill-opacity="0.4"
         id="g35">
        <g
           transform="translate(172.69538,30.589334)"
           id="g34">
          <g
             id="g33">
            <path
               d="M 14.6875,0 C 13.726562,0 13.25,-0.476562 13.25,-1.4375 V -7.34375 C 12.914062,-5.957031 12.414062,-4.675781 11.75,-3.5 11.082031,-2.332031 10.257812,-1.394531 9.28125,-0.6875 8.300781,0.0078125 7.1875,0.359375 5.9375,0.359375 c -1.3125,0 -2.453125,-0.40625 -3.421875,-1.21875 -0.960937,-0.8125 -1.4375,-1.96875 -1.4375,-3.46875 0,-1.25 0.375,-2.257813 1.125,-3.03125 0.75,-0.769531 1.742187,-1.414063 2.984375,-1.9375 1.25,-0.53125 2.613281,-1 4.09375,-1.40625 L 13.25,-11.859375 C 13.22656,-13.617188 12.78125,-14.875 11.90625,-15.625 c -0.875,-0.757812 -1.980469,-1.140625 -3.3125,-1.140625 -1,0 -1.992188,0.234375 -2.96875,0.703125 -0.980469,0.46875 -1.921875,1.25 -2.828125,2.34375 L 2.4375,-14.03125 c 1,-1.25 2.175781,-2.25 3.53125,-3 1.363281,-0.75 2.859375,-1.125 4.484375,-1.125 2.175781,0 3.78125,0.570312 4.8125,1.703125 1.039063,1.136719 1.5625,2.804687 1.5625,5 v 6.90625 c 0,1.292969 0.08594,2.246094 0.265625,2.859375 0.1875,0.605469 0.578125,1 1.171875,1.1875 V 0 Z M 4.40625,-5.59375 c 0,1.179688 0.347656,2.03125 1.046875,2.5625 0.707031,0.523438 1.46875,0.78125 2.28125,0.78125 0.882813,0 1.664063,-0.269531 2.34375,-0.8125 0.6875,-0.539062 1.257813,-1.234375 1.71875,-2.078125 0.46875,-0.84375 0.828125,-1.726563 1.078125,-2.65625 0.25,-0.9375 0.375,-1.8125 0.375,-2.625 v -0.9375 L 9.421875,-10.25 C 8.992188,-10.125 8.5,-9.945312 7.9375,-9.71875 7.375,-9.5 6.820312,-9.207031 6.28125,-8.84375 5.75,-8.488281 5.300781,-8.039062 4.9375,-7.5 4.582031,-6.96875 4.40625,-6.332031 4.40625,-5.59375 Z m 0,0"
               id="path32" />
          </g>
        </g>
      </g>
      <g
         fill="#81a969"
         fill-opacity="0.4"
         id="g38">
        <g
           transform="translate(190.95945,30.589334)"
           id="g37">
          <g
             id="g36">
            <path
               d="m 7.921875,0.28125 c -1.324219,0 -2.558594,-0.167969 -3.703125,-0.5 -1.148438,-0.332031 -2.0625,-0.722656 -2.75,-1.171875 L 1.109375,-6.09375 1.46875,-6.15625 c 0.757812,1.71875 1.765625,3.121094 3.015625,4.203125 1.257813,1.085937 2.691406,1.640625 4.296875,1.671875 1.113281,0.023438 2,-0.285156 2.65625,-0.921875 0.65625,-0.632813 0.984375,-1.351563 0.984375,-2.15625 0,-1.144531 -0.4375,-2.003906 -1.3125,-2.578125 -0.867187,-0.570312 -2.074219,-1.097656 -3.625,-1.578125 C 6.242188,-7.898438 5.160156,-8.300781 4.234375,-8.71875 3.316406,-9.132812 2.613281,-9.671875 2.125,-10.328125 c -0.492188,-0.65625 -0.734375,-1.519531 -0.734375,-2.59375 0,-0.914063 0.242187,-1.769531 0.734375,-2.5625 0.488281,-0.800781 1.242188,-1.445313 2.265625,-1.9375 C 5.421875,-17.910156 6.75,-18.15625 8.375,-18.15625 c 1.03125,0 2.046875,0.08594 3.046875,0.25 1,0.167969 1.800781,0.382812 2.40625,0.640625 L 14,-13.328125 13.578125,-13.25 c -0.605469,-1.269531 -1.4375,-2.320312 -2.5,-3.15625 -1.0625,-0.832031 -2.25,-1.25 -3.5625,-1.25 -1.117187,0 -2.015625,0.265625 -2.703125,0.796875 -0.679688,0.523437 -1.015625,1.164063 -1.015625,1.921875 0,1 0.429687,1.773438 1.296875,2.3125 0.875,0.542969 2.113281,1.085938 3.71875,1.625 0.957031,0.3125 1.894531,0.664062 2.8125,1.046875 0.914062,0.375 1.675781,0.90625 2.28125,1.59375 0.613281,0.679687 0.921875,1.625 0.921875,2.84375 0,0.90625 -0.21875,1.808594 -0.65625,2.703125 -0.429687,0.898438 -1.140625,1.636719 -2.140625,2.21875 -1,0.5859375 -2.371094,0.875 -4.109375,0.875 z m 0,0"
               id="path35" />
          </g>
        </g>
      </g>
      <g
         fill="#81a969"
         fill-opacity="0.4"
         id="g41">
        <g
           transform="translate(206.28693,30.589334)"
           id="g40">
          <g
             id="g39">
            <path
               d="m 7.921875,0.28125 c -1.324219,0 -2.558594,-0.167969 -3.703125,-0.5 -1.148438,-0.332031 -2.0625,-0.722656 -2.75,-1.171875 L 1.109375,-6.09375 1.46875,-6.15625 c 0.757812,1.71875 1.765625,3.121094 3.015625,4.203125 1.257813,1.085937 2.691406,1.640625 4.296875,1.671875 1.113281,0.023438 2,-0.285156 2.65625,-0.921875 0.65625,-0.632813 0.984375,-1.351563 0.984375,-2.15625 0,-1.144531 -0.4375,-2.003906 -1.3125,-2.578125 -0.867187,-0.570312 -2.074219,-1.097656 -3.625,-1.578125 C 6.242188,-7.898438 5.160156,-8.300781 4.234375,-8.71875 3.316406,-9.132812 2.613281,-9.671875 2.125,-10.328125 c -0.492188,-0.65625 -0.734375,-1.519531 -0.734375,-2.59375 0,-0.914063 0.242187,-1.769531 0.734375,-2.5625 0.488281,-0.800781 1.242188,-1.445313 2.265625,-1.9375 C 5.421875,-17.910156 6.75,-18.15625 8.375,-18.15625 c 1.03125,0 2.046875,0.08594 3.046875,0.25 1,0.167969 1.800781,0.382812 2.40625,0.640625 L 14,-13.328125 13.578125,-13.25 c -0.605469,-1.269531 -1.4375,-2.320312 -2.5,-3.15625 -1.0625,-0.832031 -2.25,-1.25 -3.5625,-1.25 -1.117187,0 -2.015625,0.265625 -2.703125,0.796875 -0.679688,0.523437 -1.015625,1.164063 -1.015625,1.921875 0,1 0.429687,1.773438 1.296875,2.3125 0.875,0.542969 2.113281,1.085938 3.71875,1.625 0.957031,0.3125 1.894531,0.664062 2.8125,1.046875 0.914062,0.375 1.675781,0.90625 2.28125,1.59375 0.613281,0.679687 0.921875,1.625 0.921875,2.84375 0,0.90625 -0.21875,1.808594 -0.65625,2.703125 -0.429687,0.898438 -1.140625,1.636719 -2.140625,2.21875 -1,0.5859375 -2.371094,0.875 -4.109375,0.875 z m 0,0"
               id="path38" />
          </g>
        </g>
      </g>
      <g
         fill="#81a969"
         fill-opacity="0.4"
         id="g44">
        <g
           transform="translate(221.61441,30.589334)"
           id="g43">
          <g
             id="g42">
            <path
               d="M 14.6875,0 C 13.726562,0 13.25,-0.476562 13.25,-1.4375 V -7.34375 C 12.914062,-5.957031 12.414062,-4.675781 11.75,-3.5 11.082031,-2.332031 10.257812,-1.394531 9.28125,-0.6875 8.300781,0.0078125 7.1875,0.359375 5.9375,0.359375 c -1.3125,0 -2.453125,-0.40625 -3.421875,-1.21875 -0.960937,-0.8125 -1.4375,-1.96875 -1.4375,-3.46875 0,-1.25 0.375,-2.257813 1.125,-3.03125 0.75,-0.769531 1.742187,-1.414063 2.984375,-1.9375 1.25,-0.53125 2.613281,-1 4.09375,-1.40625 L 13.25,-11.859375 C 13.22656,-13.617188 12.78125,-14.875 11.90625,-15.625 c -0.875,-0.757812 -1.980469,-1.140625 -3.3125,-1.140625 -1,0 -1.992188,0.234375 -2.96875,0.703125 -0.980469,0.46875 -1.921875,1.25 -2.828125,2.34375 L 2.4375,-14.03125 c 1,-1.25 2.175781,-2.25 3.53125,-3 1.363281,-0.75 2.859375,-1.125 4.484375,-1.125 2.175781,0 3.78125,0.570312 4.8125,1.703125 1.039063,1.136719 1.5625,2.804687 1.5625,5 v 6.90625 c 0,1.292969 0.08594,2.246094 0.265625,2.859375 0.1875,0.605469 0.578125,1 1.171875,1.1875 V 0 Z M 4.40625,-5.59375 c 0,1.179688 0.347656,2.03125 1.046875,2.5625 0.707031,0.523438 1.46875,0.78125 2.28125,0.78125 0.882813,0 1.664063,-0.269531 2.34375,-0.8125 0.6875,-0.539062 1.257813,-1.234375 1.71875,-2.078125 0.46875,-0.84375 0.828125,-1.726563 1.078125,-2.65625 0.25,-0.9375 0.375,-1.8125 0.375,-2.625 v -0.9375 L 9.421875,-10.25 C 8.992188,-10.125 8.5,-9.945312 7.9375,-9.71875 7.375,-9.5 6.820312,-9.207031 6.28125,-8.84375 5.75,-8.488281 5.300781,-8.039062 4.9375,-7.5 4.582031,-6.96875 4.40625,-6.332031 4.40625,-5.59375 Z m 0,0"
               id="path41" />
          </g>
        </g>
      </g>
      <g
         fill="#81a969"
         fill-opacity="0.4"
         id="g47">
        <g
           transform="translate(239.87847,30.589334)"
           id="g46">
          <g
             id="g45">
            <path
               d="M 6.234375,9.921875 C 5.679688,9.921875 5.082031,9.847656 4.4375,9.703125 3.789062,9.554688 3.175781,9.320312 2.59375,9 2.007812,8.675781 1.523438,8.234375 1.140625,7.671875 c -0.375,-0.554687 -0.5625,-1.246094 -0.5625,-2.078125 0,-0.980469 0.382813,-1.933594 1.15625,-2.859375 0.78125,-0.917969 1.863281,-1.792969 3.25,-2.625 C 4.242188,-0.109375 3.65625,-0.4375 3.21875,-0.875 2.789062,-1.320312 2.578125,-1.914062 2.578125,-2.65625 c 0,-0.664062 0.238281,-1.257812 0.71875,-1.78125 C 3.773438,-4.96875 4.488281,-5.519531 5.4375,-6.09375 4.507812,-6.539062 3.722656,-7.179688 3.078125,-8.015625 2.429688,-8.859375 2.109375,-9.957031 2.109375,-11.3125 c 0,-1.269531 0.335937,-2.414062 1.015625,-3.4375 0.6875,-1.03125 1.582031,-1.851562 2.6875,-2.46875 1.113281,-0.625 2.316406,-0.9375 3.609375,-0.9375 0.925781,0 1.796875,0.109375 2.609375,0.328125 0.53125,-0.8125 1.164062,-1.457031 1.90625,-1.9375 0.570312,-0.40625 1.171875,-0.722656 1.796875,-0.953125 0.632813,-0.226562 1.320313,-0.34375 2.0625,-0.34375 0.550781,0 1.035156,0.07813 1.453125,0.234375 0.414062,0.15625 0.625,0.402344 0.625,0.734375 0,0.21875 -0.08594,0.5 -0.25,0.84375 -0.167969,0.34375 -0.417969,0.65625 -0.75,0.9375 -0.335938,0.273438 -0.75,0.40625 -1.25,0.40625 -0.4375,0 -0.953125,-0.08203 -1.546875,-0.25 -0.59375,-0.164062 -1.40625,-0.414062 -2.4375,-0.75 -0.335937,0.261719 -0.695313,0.679688 -1.078125,1.25 1.15625,0.386719 2.125,1.027344 2.90625,1.921875 0.789062,0.898437 1.1875,2.121094 1.1875,3.671875 0,1 -0.234375,1.917969 -0.703125,2.75 -0.46875,0.835938 -1.074219,1.554688 -1.8125,2.15625 -0.742187,0.59375 -1.527344,1.058594 -2.359375,1.390625 -0.835938,0.335937 -1.621094,0.5 -2.359375,0.5 -0.554687,0 -1.136719,-0.046875 -1.75,-0.140625 C 7.066406,-5.5 6.488281,-5.65625 5.9375,-5.875 5.632812,-5.6875 5.382812,-5.488281 5.1875,-5.28125 5,-5.082031 4.90625,-4.828125 4.90625,-4.515625 c 0,0.21875 0.085938,0.445313 0.265625,0.671875 C 5.347656,-3.625 5.707031,-3.4375 6.25,-3.28125 6.789062,-3.125 7.609375,-3.007812 8.703125,-2.9375 L 13.5,-2.65625 c 1.84375,0.105469 3.21875,0.390625 4.125,0.859375 0.90625,0.460937 1.359375,1.320313 1.359375,2.578125 0,0.976562 -0.355469,2 -1.0625,3.0625 -0.699219,1.0625 -1.648437,2.050781 -2.84375,2.96875 -1.199219,0.925781 -2.5625,1.675781 -4.09375,2.25 -1.523437,0.570312 -3.105469,0.859375 -4.75,0.859375 z m -2.71875,-6.09375 c 0,0.957031 0.242187,1.722656 0.734375,2.296875 0.488281,0.570312 1.128906,0.988281 1.921875,1.25 0.800781,0.257812 1.671875,0.390625 2.609375,0.390625 1.664062,0 3.132812,-0.246094 4.40625,-0.734375 1.28125,-0.492188 2.28125,-1.117188 3,-1.875 0.71875,-0.761719 1.078125,-1.5625 1.078125,-2.40625 0,-0.574219 -0.246094,-1.027344 -0.734375,-1.359375 C 16.039062,1.054688 15.09375,0.851562 13.6875,0.78125 L 7.921875,0.5 C 7.484375,0.476562 7.066406,0.441406 6.671875,0.390625 6.285156,0.347656 5.925781,0.300781 5.59375,0.25 4.78125,0.820312 4.226562,1.410156 3.9375,2.015625 3.65625,2.628906 3.515625,3.234375 3.515625,3.828125 Z M 5.4375,-13.28125 c 0,0.742188 0.085938,1.53125 0.265625,2.375 0.1875,0.84375 0.472656,1.652344 0.859375,2.421875 0.394531,0.761719 0.890625,1.386719 1.484375,1.875 0.601563,0.492187 1.3125,0.734375 2.125,0.734375 0.8125,0 1.445313,-0.195312 1.90625,-0.59375 C 12.546875,-6.863281 12.875,-7.375 13.0625,-8 c 0.195312,-0.632812 0.296875,-1.3125 0.296875,-2.03125 0,-0.78125 -0.117187,-1.628906 -0.34375,-2.546875 -0.230469,-0.925781 -0.5625,-1.78125 -1,-2.5625 -0.4375,-0.789063 -0.976563,-1.421875 -1.609375,-1.890625 C 9.769531,-17.5 9.046875,-17.695312 8.234375,-17.625 c -1.074219,0.125 -1.808594,0.617188 -2.203125,1.46875 -0.398438,0.84375 -0.59375,1.804688 -0.59375,2.875 z m 0,0"
               id="path44" />
          </g>
        </g>
      </g>
      <g
         fill="#81a969"
         fill-opacity="0.4"
         id="g50">
        <g
           transform="translate(258.28579,30.589334)"
           id="g49">
          <g
             id="g48">
            <path
               d="m 9.59375,0.359375 c -1,0 -1.996094,-0.179687 -2.984375,-0.53125 -0.992187,-0.363281 -1.90625,-0.898437 -2.75,-1.609375 -0.835937,-0.71875 -1.5,-1.613281 -2,-2.6875 -0.5,-1.082031 -0.75,-2.347656 -0.75,-3.796875 0,-1.53125 0.265625,-2.90625 0.796875,-4.125 0.539062,-1.21875 1.265625,-2.253906 2.171875,-3.109375 0.90625,-0.863281 1.914063,-1.519531 3.03125,-1.96875 1.113281,-0.457031 2.253906,-0.6875 3.421875,-0.6875 1.625,0 2.984375,0.324219 4.078125,0.96875 1.101563,0.648438 1.929687,1.460938 2.484375,2.4375 0.5625,0.980469 0.84375,1.996094 0.84375,3.046875 H 4.375 c -0.03125,0.1875 -0.054688,0.382813 -0.0625,0.578125 -0.011719,0.1875 -0.015625,0.375 -0.015625,0.5625 0,1.554688 0.300781,2.9375 0.90625,4.15625 0.613281,1.21875 1.472656,2.167969 2.578125,2.84375 1.113281,0.679688 2.421875,1.015625 3.921875,1.015625 1.34375,0 2.523437,-0.257813 3.546875,-0.78125 1.03125,-0.53125 1.914062,-1.210937 2.65625,-2.046875 l 0.328125,0.359375 C 17.679688,-4.179688 17,-3.351562 16.1875,-2.53125 c -0.8125,0.824219 -1.773438,1.511719 -2.875,2.0625 -1.09375,0.5507812 -2.335938,0.828125 -3.71875,0.828125 z M 4.40625,-12.21875 h 9.921875 C 14.179688,-13.195312 13.875,-14.082031 13.40625,-14.875 c -0.460938,-0.800781 -1.03125,-1.441406 -1.71875,-1.921875 -0.679688,-0.476563 -1.433594,-0.71875 -2.265625,-0.71875 -1,-0.01953 -1.851563,0.21875 -2.546875,0.71875 -0.6875,0.5 -1.234375,1.15625 -1.640625,1.96875 -0.40625,0.8125 -0.683594,1.683594 -0.828125,2.609375 z m 0,0"
               id="path47" />
          </g>
        </g>
      </g>
      <g
         fill="#81a969"
         fill-opacity="0.4"
         id="g53">
        <g
           transform="translate(276.69313,30.589334)"
           id="g52">
          <g
             id="g51">
            <path
               d="M 1,0 V -0.5 C 1.59375,-0.6875 1.976562,-1.082031 2.15625,-1.6875 2.34375,-2.300781 2.4375,-3.253906 2.4375,-4.546875 v -8.234375 c 0,-1.050781 -0.125,-1.742188 -0.375,-2.078125 C 1.8125,-15.191406 1.457031,-15.457031 1,-15.65625 v -0.5 l 4.734375,-2.078125 0.359375,0.296875 v 3 c 0.976562,-0.8125 2.097656,-1.550781 3.359375,-2.21875 1.269531,-0.664062 2.597656,-1 3.984375,-1 1.257812,0 2.296875,0.261719 3.109375,0.78125 0.8125,0.511719 1.382813,1.339844 1.71875,2.484375 0.976563,-0.8125 2.101563,-1.554687 3.375,-2.234375 1.28125,-0.6875 2.625,-1.03125 4.03125,-1.03125 1.65625,0 2.925781,0.460938 3.8125,1.375 0.894531,0.917969 1.34375,2.429688 1.34375,4.53125 v 7.703125 c 0,1.292969 0.08594,2.246094 0.265625,2.859375 0.1875,0.605469 0.578125,1 1.171875,1.1875 V 0 H 25.75 v -0.5 c 0.59375,-0.1875 0.976562,-0.582031 1.15625,-1.1875 0.1875,-0.613281 0.28125,-1.566406 0.28125,-2.859375 v -7.0625 c 0,-1.613281 -0.28125,-2.867187 -0.84375,-3.765625 -0.5625,-0.894531 -1.511719,-1.34375 -2.84375,-1.34375 -0.84375,0 -1.671875,0.199219 -2.484375,0.59375 -0.8125,0.386719 -1.695313,0.964844 -2.640625,1.734375 0.144531,0.636719 0.21875,1.351563 0.21875,2.140625 v 7.703125 c 0,1.292969 0.08594,2.246094 0.265625,2.859375 0.175781,0.605469 0.5625,1 1.15625,1.1875 V 0 H 13.5 v -0.5 c 0.59375,-0.1875 0.976562,-0.582031 1.15625,-1.1875 0.1875,-0.613281 0.28125,-1.566406 0.28125,-2.859375 v -7.0625 c 0,-1.613281 -0.28125,-2.867187 -0.84375,-3.765625 -0.5625,-0.894531 -1.511719,-1.34375 -2.84375,-1.34375 -0.84375,0 -1.671875,0.203125 -2.484375,0.609375 -0.804687,0.40625 -1.695313,1 -2.671875,1.78125 v 9.78125 c 0,1.292969 0.085938,2.246094 0.265625,2.859375 0.175781,0.605469 0.5625,1 1.15625,1.1875 V 0 Z m 0,0"
               id="path50" />
          </g>
        </g>
      </g>
      <g
         fill="#ffffff"
         fill-opacity="1"
         id="g56">
        <g
           transform="translate(1.478727,30.589334)"
           id="g55">
          <g
             id="g54">
            <path
               d="M 15.75,0.359375 C 12.914062,0.359375 10.457031,-0.125 8.375,-1.09375 6.300781,-2.0625 4.707031,-3.46875 3.59375,-5.3125 2.488281,-7.164062 1.9375,-9.429688 1.9375,-12.109375 c 0,-1.8125 0.335938,-3.507813 1.015625,-5.09375 0.675781,-1.59375 1.65625,-3 2.9375,-4.21875 1.28125,-1.21875 2.804687,-2.171875 4.578125,-2.859375 1.78125,-0.6875 3.769531,-1.03125 5.96875,-1.03125 0.882812,0 1.84375,0.05859 2.875,0.171875 1.039062,0.117187 2.03125,0.304687 2.96875,0.5625 0.945312,0.25 1.734375,0.589844 2.359375,1.015625 l 0.140625,4.71875 -0.421875,0.109375 c -0.480469,-1.238281 -1.1875,-2.289063 -2.125,-3.15625 -0.929687,-0.875 -1.96875,-1.550781 -3.125,-2.03125 -1.15625,-0.476563 -2.359375,-0.71875 -3.609375,-0.71875 -1.90625,0 -3.59375,0.421875 -5.0625,1.265625 -1.46875,0.835938 -2.621094,2.058594 -3.453125,3.671875 -0.835937,1.605469 -1.25,3.601563 -1.25,5.984375 0,1.71875 0.25,3.382812 0.75,4.984375 0.5,1.59375 1.21875,3.023437 2.15625,4.28125 0.945313,1.25 2.109375,2.242187 3.484375,2.96875 1.375,0.730469 2.929688,1.09375 4.671875,1.09375 2,0 3.679687,-0.5625 5.046875,-1.6875 1.363281,-1.125 2.367188,-2.613281 3.015625,-4.46875 l 0.453125,0.0625 -0.5625,5.125 c -0.960938,0.429687 -2.152344,0.824219 -3.578125,1.1875 -1.417969,0.351563 -3.226563,0.53125 -5.421875,0.53125 z m 0,0"
               id="path53" />
          </g>
        </g>
      </g>
      <g
         fill="#ffffff"
         fill-opacity="1"
         id="g59">
        <g
           transform="translate(27.65729,30.589334)"
           id="g58">
          <g
             id="g57">
            <path
               d="M 14.6875,0 C 13.726562,0 13.25,-0.476562 13.25,-1.4375 V -7.34375 C 12.914062,-5.957031 12.414062,-4.675781 11.75,-3.5 11.082031,-2.332031 10.257812,-1.394531 9.28125,-0.6875 8.300781,0.0078125 7.1875,0.359375 5.9375,0.359375 c -1.3125,0 -2.453125,-0.40625 -3.421875,-1.21875 -0.960937,-0.8125 -1.4375,-1.96875 -1.4375,-3.46875 0,-1.25 0.375,-2.257813 1.125,-3.03125 0.75,-0.769531 1.742187,-1.414063 2.984375,-1.9375 1.25,-0.53125 2.613281,-1 4.09375,-1.40625 L 13.25,-11.859375 C 13.22656,-13.617188 12.78125,-14.875 11.90625,-15.625 c -0.875,-0.757812 -1.980469,-1.140625 -3.3125,-1.140625 -1,0 -1.992188,0.234375 -2.96875,0.703125 -0.980469,0.46875 -1.921875,1.25 -2.828125,2.34375 L 2.4375,-14.03125 c 1,-1.25 2.175781,-2.25 3.53125,-3 1.363281,-0.75 2.859375,-1.125 4.484375,-1.125 2.175781,0 3.78125,0.570312 4.8125,1.703125 1.039063,1.136719 1.5625,2.804687 1.5625,5 v 6.90625 c 0,1.292969 0.08594,2.246094 0.265625,2.859375 0.1875,0.605469 0.578125,1 1.171875,1.1875 V 0 Z M 4.40625,-5.59375 c 0,1.179688 0.347656,2.03125 1.046875,2.5625 0.707031,0.523438 1.46875,0.78125 2.28125,0.78125 0.882813,0 1.664063,-0.269531 2.34375,-0.8125 0.6875,-0.539062 1.257813,-1.234375 1.71875,-2.078125 0.46875,-0.84375 0.828125,-1.726563 1.078125,-2.65625 0.25,-0.9375 0.375,-1.8125 0.375,-2.625 v -0.9375 L 9.421875,-10.25 C 8.992188,-10.125 8.5,-9.945312 7.9375,-9.71875 7.375,-9.5 6.820312,-9.207031 6.28125,-8.84375 5.75,-8.488281 5.300781,-8.039062 4.9375,-7.5 4.582031,-6.96875 4.40625,-6.332031 4.40625,-5.59375 Z m 0,0"
               id="path56" />
          </g>
        </g>
      </g>
      <g
         fill="#ffffff"
         fill-opacity="1"
         id="g62">
        <g
           transform="translate(45.921364,30.589334)"
           id="g61">
          <g
             id="g60">
            <path
               d="M 1,0 V -0.5 C 1.59375,-0.6875 1.976562,-1.082031 2.15625,-1.6875 2.34375,-2.300781 2.4375,-3.253906 2.4375,-4.546875 v -8.234375 c 0,-1.050781 -0.125,-1.742188 -0.375,-2.078125 C 1.8125,-15.191406 1.457031,-15.457031 1,-15.65625 v -0.5 l 4.734375,-2.078125 0.359375,0.296875 v 4.328125 c 0.539062,-1.289063 1.410156,-2.34375 2.609375,-3.15625 0.664063,-0.46875 1.347656,-0.816406 2.046875,-1.046875 0.707031,-0.226562 1.492188,-0.34375 2.359375,-0.34375 0.613281,0 1.148437,0.08594 1.609375,0.25 0.457031,0.167969 0.6875,0.445312 0.6875,0.828125 0,0.261719 -0.09375,0.578125 -0.28125,0.953125 -0.179688,0.367188 -0.449219,0.6875 -0.8125,0.96875 -0.355469,0.273438 -0.804688,0.40625 -1.34375,0.40625 -0.5,0 -1.117188,-0.08594 -1.84375,-0.265625 -0.730469,-0.1875 -1.667969,-0.457031 -2.8125,-0.8125 -0.460938,0.386719 -0.933594,0.949219 -1.421875,1.6875 -0.492187,0.742187 -0.757813,1.5625 -0.796875,2.46875 v 7.125 c 0,1.292969 0.085938,2.246094 0.265625,2.859375 0.175781,0.605469 0.5625,1 1.15625,1.1875 V 0 Z m 0,0"
               id="path59" />
          </g>
        </g>
      </g>
      <g
         fill="#ffffff"
         fill-opacity="1"
         id="g65">
        <g
           transform="translate(61.356277,30.589334)"
           id="g64">
          <g
             id="g63">
            <path
               d="M 10.671875,0.359375 C 9.503906,0.359375 8.351562,0.1875 7.21875,-0.15625 6.082031,-0.507812 5.050781,-1.046875 4.125,-1.765625 3.207031,-2.492188 2.472656,-3.414062 1.921875,-4.53125 c -0.542969,-1.113281 -0.8125,-2.429688 -0.8125,-3.953125 0,-1.457031 0.257813,-2.773437 0.78125,-3.953125 0.53125,-1.1875 1.25,-2.203125 2.15625,-3.046875 0.90625,-0.851563 1.929687,-1.507813 3.078125,-1.96875 1.144531,-0.46875 2.328125,-0.703125 3.546875,-0.703125 1.125,0 2.238281,0.167969 3.34375,0.5 1.113281,0.335938 2.140625,0.867188 3.078125,1.59375 0.945312,0.730469 1.703125,1.65625 2.265625,2.78125 0.5625,1.117188 0.84375,2.464844 0.84375,4.046875 0,1.523437 -0.296875,2.882813 -0.890625,4.078125 -0.585938,1.199219 -1.351562,2.203125 -2.296875,3.015625 -0.9375,0.804687 -1.96875,1.421875 -3.09375,1.859375 -1.117187,0.425781 -2.199219,0.640625 -3.25,0.640625 z M 4.6875,-11.171875 c 0,1.054687 0.15625,2.199219 0.46875,3.4375 0.3125,1.242187 0.769531,2.417969 1.375,3.53125 0.613281,1.105469 1.375,2.011719 2.28125,2.71875 0.90625,0.699219 1.941406,1.046875 3.109375,1.046875 1.175781,0 2.101563,-0.296875 2.78125,-0.890625 0.675781,-0.59375 1.15625,-1.351563 1.4375,-2.28125 0.289063,-0.9375 0.4375,-1.90625 0.4375,-2.90625 0,-1.144531 -0.1875,-2.367187 -0.5625,-3.671875 -0.367187,-1.300781 -0.886719,-2.523438 -1.5625,-3.671875 C 13.773438,-15.003906 12.957031,-15.914062 12,-16.59375 c -0.960938,-0.6875 -2.011719,-0.96875 -3.15625,-0.84375 -1.023438,0.09375 -1.839844,0.449219 -2.453125,1.0625 -0.605469,0.605469 -1.042969,1.367188 -1.3125,2.28125 -0.261719,0.917969 -0.390625,1.890625 -0.390625,2.921875 z m 0,0"
               id="path62" />
          </g>
        </g>
      </g>
      <g
         fill="#ffffff"
         fill-opacity="1"
         id="g68">
        <g
           transform="translate(82.30626,30.589334)"
           id="g67">
          <g
             id="g66">
            <path
               d="M 1.078125,0 V -0.5 C 1.671875,-0.6875 2.054688,-1.082031 2.234375,-1.6875 2.410156,-2.300781 2.5,-3.253906 2.5,-4.546875 V -23.53125 c 0,-1.050781 -0.125,-1.742188 -0.375,-2.078125 -0.25,-0.332031 -0.601562,-0.59375 -1.046875,-0.78125 v -0.5 l 4.71875,-2.078125 0.359375,0.28125 v 24.140625 c 0,1.292969 0.085938,2.246094 0.265625,2.859375 0.1875,0.605469 0.578125,1 1.171875,1.1875 V 0 Z m 0,0"
               id="path65" />
          </g>
        </g>
      </g>
      <g
         fill="#ffffff"
         fill-opacity="1"
         id="g71">
        <g
           transform="translate(90.399677,30.589334)"
           id="g70">
          <g
             id="g69">
            <path
               d="M 1,0 V -0.5 C 1.59375,-0.6875 1.976562,-1.082031 2.15625,-1.6875 2.34375,-2.300781 2.4375,-3.253906 2.4375,-4.546875 v -8.234375 c 0,-1.050781 -0.125,-1.742188 -0.375,-2.078125 C 1.8125,-15.191406 1.457031,-15.457031 1,-15.65625 v -0.5 l 4.734375,-2.078125 0.359375,0.296875 v 13.390625 c 0,1.292969 0.085938,2.246094 0.265625,2.859375 0.175781,0.605469 0.5625,1 1.15625,1.1875 V 0 Z m 0.609375,-21.875 c 0,-0.695312 0.238281,-1.285156 0.71875,-1.765625 0.476563,-0.476563 1.050781,-0.71875 1.71875,-0.71875 0.71875,0 1.300781,0.242187 1.75,0.71875 0.457031,0.480469 0.6875,1.070313 0.6875,1.765625 0,0.667969 -0.234375,1.242188 -0.703125,1.71875 -0.46875,0.46875 -1.046875,0.703125 -1.734375,0.703125 -0.667969,0 -1.242187,-0.234375 -1.71875,-0.703125 -0.480469,-0.476562 -0.71875,-1.050781 -0.71875,-1.71875 z m 0,0"
               id="path68" />
          </g>
        </g>
      </g>
      <g
         fill="#ffffff"
         fill-opacity="1"
         id="g74">
        <g
           transform="translate(98.278217,30.589334)"
           id="g73">
          <g
             id="g72">
            <path
               d="M 1,0 V -0.5 C 1.59375,-0.6875 1.976562,-1.082031 2.15625,-1.6875 2.34375,-2.300781 2.4375,-3.253906 2.4375,-4.546875 v -8.234375 c 0,-1.050781 -0.125,-1.742188 -0.375,-2.078125 C 1.8125,-15.191406 1.457031,-15.457031 1,-15.65625 v -0.5 l 4.734375,-2.078125 0.359375,0.296875 v 3 c 0.976562,-0.8125 2.097656,-1.550781 3.359375,-2.21875 1.269531,-0.664062 2.597656,-1 3.984375,-1 1.644531,0 2.972656,0.460938 3.984375,1.375 1.007813,0.917969 1.515625,2.429688 1.515625,4.53125 v 7.703125 c 0,1.292969 0.08594,2.246094 0.265625,2.859375 0.1875,0.605469 0.578125,1 1.171875,1.1875 V 0 h -6.515625 v -0.5 c 0.59375,-0.1875 0.976563,-0.582031 1.15625,-1.1875 0.1875,-0.613281 0.28125,-1.566406 0.28125,-2.859375 v -7.0625 c 0,-1.613281 -0.34375,-2.867187 -1.03125,-3.765625 -0.679687,-0.894531 -1.683594,-1.34375 -3.015625,-1.34375 -0.84375,0 -1.671875,0.203125 -2.484375,0.609375 -0.804687,0.40625 -1.695313,1 -2.671875,1.78125 v 9.78125 c 0,1.292969 0.085938,2.246094 0.265625,2.859375 0.175781,0.605469 0.5625,1 1.15625,1.1875 V 0 Z m 0,0"
               id="path71" />
          </g>
        </g>
      </g>
      <g
         fill="#ffffff"
         fill-opacity="1"
         id="g77">
        <g
           transform="translate(118.65521,30.589334)"
           id="g76">
          <g
             id="g75">
            <path
               d="m 9.59375,0.359375 c -1,0 -1.996094,-0.179687 -2.984375,-0.53125 -0.992187,-0.363281 -1.90625,-0.898437 -2.75,-1.609375 -0.835937,-0.71875 -1.5,-1.613281 -2,-2.6875 -0.5,-1.082031 -0.75,-2.347656 -0.75,-3.796875 0,-1.53125 0.265625,-2.90625 0.796875,-4.125 0.539062,-1.21875 1.265625,-2.253906 2.171875,-3.109375 0.90625,-0.863281 1.914063,-1.519531 3.03125,-1.96875 1.113281,-0.457031 2.253906,-0.6875 3.421875,-0.6875 1.625,0 2.984375,0.324219 4.078125,0.96875 1.101563,0.648438 1.929687,1.460938 2.484375,2.4375 0.5625,0.980469 0.84375,1.996094 0.84375,3.046875 H 4.375 c -0.03125,0.1875 -0.054688,0.382813 -0.0625,0.578125 -0.011719,0.1875 -0.015625,0.375 -0.015625,0.5625 0,1.554688 0.300781,2.9375 0.90625,4.15625 0.613281,1.21875 1.472656,2.167969 2.578125,2.84375 1.113281,0.679688 2.421875,1.015625 3.921875,1.015625 1.34375,0 2.523437,-0.257813 3.546875,-0.78125 1.03125,-0.53125 1.914062,-1.210937 2.65625,-2.046875 l 0.328125,0.359375 C 17.679688,-4.179688 17,-3.351562 16.1875,-2.53125 c -0.8125,0.824219 -1.773438,1.511719 -2.875,2.0625 -1.09375,0.5507812 -2.335938,0.828125 -3.71875,0.828125 z M 4.40625,-12.21875 h 9.921875 C 14.179688,-13.195312 13.875,-14.082031 13.40625,-14.875 c -0.460938,-0.800781 -1.03125,-1.441406 -1.71875,-1.921875 -0.679688,-0.476563 -1.433594,-0.71875 -2.265625,-0.71875 -1,-0.01953 -1.851563,0.21875 -2.546875,0.71875 -0.6875,0.5 -1.234375,1.15625 -1.640625,1.96875 -0.40625,0.8125 -0.683594,1.683594 -0.828125,2.609375 z m 0,0"
               id="path74" />
          </g>
        </g>
      </g>
      <g
         fill="#ffffff"
         fill-opacity="1"
         id="g80">
        <g
           transform="translate(137.06253,30.589334)"
           id="g79">
          <g
             id="g78" />
        </g>
      </g>
      <g
         fill="#ffffff"
         fill-opacity="1"
         id="g83">
        <g
           transform="translate(143.50859,30.589334)"
           id="g82">
          <g
             id="g81">
            <path
               d="M 1.5,0 V -0.5 C 2.101562,-0.6875 2.492188,-1.082031 2.671875,-1.6875 2.847656,-2.300781 2.9375,-3.253906 2.9375,-4.546875 V -18.375 c 0,-1.457031 -0.089844,-2.601562 -0.265625,-3.4375 -0.179687,-0.832031 -0.449219,-1.453125 -0.8125,-1.859375 C 1.503906,-24.078125 1.050781,-24.375 0.5,-24.5625 v -0.5 h 5.375 l 8.84375,14.671875 8.421875,-14.671875 h 5.078125 v 0.5 c -0.554688,0.1875 -1.007812,0.484375 -1.359375,0.890625 -0.355469,0.40625 -0.625,1.027344 -0.8125,1.859375 -0.179687,0.835938 -0.265625,1.980469 -0.265625,3.4375 v 13.828125 c 0,1.292969 0.08594,2.246094 0.265625,2.859375 0.1875,0.605469 0.578125,1 1.171875,1.1875 V 0 H 20.5625 v -0.5 c 0.59375,-0.1875 0.976562,-0.582031 1.15625,-1.1875 0.175781,-0.613281 0.265625,-1.566406 0.265625,-2.859375 V -21.875 l -8.59375,15.078125 H 12.5625 L 3.578125,-21.5625 v 14.859375 c 0,1.460937 0.09375,2.609375 0.28125,3.453125 0.195313,0.835938 0.5,1.453125 0.90625,1.859375 0.40625,0.40625 0.914063,0.703125 1.53125,0.890625 V 0 Z m 0,0"
               id="path80" />
          </g>
        </g>
      </g>
      <g
         fill="#ffffff"
         fill-opacity="1"
         id="g86">
        <g
           transform="translate(172.69538,30.589334)"
           id="g85">
          <g
             id="g84">
            <path
               d="M 14.6875,0 C 13.726562,0 13.25,-0.476562 13.25,-1.4375 V -7.34375 C 12.914062,-5.957031 12.414062,-4.675781 11.75,-3.5 11.082031,-2.332031 10.257812,-1.394531 9.28125,-0.6875 8.300781,0.0078125 7.1875,0.359375 5.9375,0.359375 c -1.3125,0 -2.453125,-0.40625 -3.421875,-1.21875 -0.960937,-0.8125 -1.4375,-1.96875 -1.4375,-3.46875 0,-1.25 0.375,-2.257813 1.125,-3.03125 0.75,-0.769531 1.742187,-1.414063 2.984375,-1.9375 1.25,-0.53125 2.613281,-1 4.09375,-1.40625 L 13.25,-11.859375 C 13.22656,-13.617188 12.78125,-14.875 11.90625,-15.625 c -0.875,-0.757812 -1.980469,-1.140625 -3.3125,-1.140625 -1,0 -1.992188,0.234375 -2.96875,0.703125 -0.980469,0.46875 -1.921875,1.25 -2.828125,2.34375 L 2.4375,-14.03125 c 1,-1.25 2.175781,-2.25 3.53125,-3 1.363281,-0.75 2.859375,-1.125 4.484375,-1.125 2.175781,0 3.78125,0.570312 4.8125,1.703125 1.039063,1.136719 1.5625,2.804687 1.5625,5 v 6.90625 c 0,1.292969 0.08594,2.246094 0.265625,2.859375 0.1875,0.605469 0.578125,1 1.171875,1.1875 V 0 Z M 4.40625,-5.59375 c 0,1.179688 0.347656,2.03125 1.046875,2.5625 0.707031,0.523438 1.46875,0.78125 2.28125,0.78125 0.882813,0 1.664063,-0.269531 2.34375,-0.8125 0.6875,-0.539062 1.257813,-1.234375 1.71875,-2.078125 0.46875,-0.84375 0.828125,-1.726563 1.078125,-2.65625 0.25,-0.9375 0.375,-1.8125 0.375,-2.625 v -0.9375 L 9.421875,-10.25 C 8.992188,-10.125 8.5,-9.945312 7.9375,-9.71875 7.375,-9.5 6.820312,-9.207031 6.28125,-8.84375 5.75,-8.488281 5.300781,-8.039062 4.9375,-7.5 4.582031,-6.96875 4.40625,-6.332031 4.40625,-5.59375 Z m 0,0"
               id="path83" />
          </g>
        </g>
      </g>
      <g
         fill="#ffffff"
         fill-opacity="1"
         id="g89">
        <g
           transform="translate(190.95945,30.589334)"
           id="g88">
          <g
             id="g87">
            <path
               d="m 7.921875,0.28125 c -1.324219,0 -2.558594,-0.167969 -3.703125,-0.5 -1.148438,-0.332031 -2.0625,-0.722656 -2.75,-1.171875 L 1.109375,-6.09375 1.46875,-6.15625 c 0.757812,1.71875 1.765625,3.121094 3.015625,4.203125 1.257813,1.085937 2.691406,1.640625 4.296875,1.671875 1.113281,0.023438 2,-0.285156 2.65625,-0.921875 0.65625,-0.632813 0.984375,-1.351563 0.984375,-2.15625 0,-1.144531 -0.4375,-2.003906 -1.3125,-2.578125 -0.867187,-0.570312 -2.074219,-1.097656 -3.625,-1.578125 C 6.242188,-7.898438 5.160156,-8.300781 4.234375,-8.71875 3.316406,-9.132812 2.613281,-9.671875 2.125,-10.328125 c -0.492188,-0.65625 -0.734375,-1.519531 -0.734375,-2.59375 0,-0.914063 0.242187,-1.769531 0.734375,-2.5625 0.488281,-0.800781 1.242188,-1.445313 2.265625,-1.9375 C 5.421875,-17.910156 6.75,-18.15625 8.375,-18.15625 c 1.03125,0 2.046875,0.08594 3.046875,0.25 1,0.167969 1.800781,0.382812 2.40625,0.640625 L 14,-13.328125 13.578125,-13.25 c -0.605469,-1.269531 -1.4375,-2.320312 -2.5,-3.15625 -1.0625,-0.832031 -2.25,-1.25 -3.5625,-1.25 -1.117187,0 -2.015625,0.265625 -2.703125,0.796875 -0.679688,0.523437 -1.015625,1.164063 -1.015625,1.921875 0,1 0.429687,1.773438 1.296875,2.3125 0.875,0.542969 2.113281,1.085938 3.71875,1.625 0.957031,0.3125 1.894531,0.664062 2.8125,1.046875 0.914062,0.375 1.675781,0.90625 2.28125,1.59375 0.613281,0.679687 0.921875,1.625 0.921875,2.84375 0,0.90625 -0.21875,1.808594 -0.65625,2.703125 -0.429687,0.898438 -1.140625,1.636719 -2.140625,2.21875 -1,0.5859375 -2.371094,0.875 -4.109375,0.875 z m 0,0"
               id="path86" />
          </g>
        </g>
      </g>
      <g
         fill="#ffffff"
         fill-opacity="1"
         id="g92">
        <g
           transform="translate(206.28693,30.589334)"
           id="g91">
          <g
             id="g90">
            <path
               d="m 7.921875,0.28125 c -1.324219,0 -2.558594,-0.167969 -3.703125,-0.5 -1.148438,-0.332031 -2.0625,-0.722656 -2.75,-1.171875 L 1.109375,-6.09375 1.46875,-6.15625 c 0.757812,1.71875 1.765625,3.121094 3.015625,4.203125 1.257813,1.085937 2.691406,1.640625 4.296875,1.671875 1.113281,0.023438 2,-0.285156 2.65625,-0.921875 0.65625,-0.632813 0.984375,-1.351563 0.984375,-2.15625 0,-1.144531 -0.4375,-2.003906 -1.3125,-2.578125 -0.867187,-0.570312 -2.074219,-1.097656 -3.625,-1.578125 C 6.242188,-7.898438 5.160156,-8.300781 4.234375,-8.71875 3.316406,-9.132812 2.613281,-9.671875 2.125,-10.328125 c -0.492188,-0.65625 -0.734375,-1.519531 -0.734375,-2.59375 0,-0.914063 0.242187,-1.769531 0.734375,-2.5625 0.488281,-0.800781 1.242188,-1.445313 2.265625,-1.9375 C 5.421875,-17.910156 6.75,-18.15625 8.375,-18.15625 c 1.03125,0 2.046875,0.08594 3.046875,0.25 1,0.167969 1.800781,0.382812 2.40625,0.640625 L 14,-13.328125 13.578125,-13.25 c -0.605469,-1.269531 -1.4375,-2.320312 -2.5,-3.15625 -1.0625,-0.832031 -2.25,-1.25 -3.5625,-1.25 -1.117187,0 -2.015625,0.265625 -2.703125,0.796875 -0.679688,0.523437 -1.015625,1.164063 -1.015625,1.921875 0,1 0.429687,1.773438 1.296875,2.3125 0.875,0.542969 2.113281,1.085938 3.71875,1.625 0.957031,0.3125 1.894531,0.664062 2.8125,1.046875 0.914062,0.375 1.675781,0.90625 2.28125,1.59375 0.613281,0.679687 0.921875,1.625 0.921875,2.84375 0,0.90625 -0.21875,1.808594 -0.65625,2.703125 -0.429687,0.898438 -1.140625,1.636719 -2.140625,2.21875 -1,0.5859375 -2.371094,0.875 -4.109375,0.875 z m 0,0"
               id="path89" />
          </g>
        </g>
      </g>
      <g
         fill="#ffffff"
         fill-opacity="1"
         id="g95">
        <g
           transform="translate(221.61441,30.589334)"
           id="g94">
          <g
             id="g93">
            <path
               d="M 14.6875,0 C 13.726562,0 13.25,-0.476562 13.25,-1.4375 V -7.34375 C 12.914062,-5.957031 12.414062,-4.675781 11.75,-3.5 11.082031,-2.332031 10.257812,-1.394531 9.28125,-0.6875 8.300781,0.0078125 7.1875,0.359375 5.9375,0.359375 c -1.3125,0 -2.453125,-0.40625 -3.421875,-1.21875 -0.960937,-0.8125 -1.4375,-1.96875 -1.4375,-3.46875 0,-1.25 0.375,-2.257813 1.125,-3.03125 0.75,-0.769531 1.742187,-1.414063 2.984375,-1.9375 1.25,-0.53125 2.613281,-1 4.09375,-1.40625 L 13.25,-11.859375 C 13.22656,-13.617188 12.78125,-14.875 11.90625,-15.625 c -0.875,-0.757812 -1.980469,-1.140625 -3.3125,-1.140625 -1,0 -1.992188,0.234375 -2.96875,0.703125 -0.980469,0.46875 -1.921875,1.25 -2.828125,2.34375 L 2.4375,-14.03125 c 1,-1.25 2.175781,-2.25 3.53125,-3 1.363281,-0.75 2.859375,-1.125 4.484375,-1.125 2.175781,0 3.78125,0.570312 4.8125,1.703125 1.039063,1.136719 1.5625,2.804687 1.5625,5 v 6.90625 c 0,1.292969 0.08594,2.246094 0.265625,2.859375 0.1875,0.605469 0.578125,1 1.171875,1.1875 V 0 Z M 4.40625,-5.59375 c 0,1.179688 0.347656,2.03125 1.046875,2.5625 0.707031,0.523438 1.46875,0.78125 2.28125,0.78125 0.882813,0 1.664063,-0.269531 2.34375,-0.8125 0.6875,-0.539062 1.257813,-1.234375 1.71875,-2.078125 0.46875,-0.84375 0.828125,-1.726563 1.078125,-2.65625 0.25,-0.9375 0.375,-1.8125 0.375,-2.625 v -0.9375 L 9.421875,-10.25 C 8.992188,-10.125 8.5,-9.945312 7.9375,-9.71875 7.375,-9.5 6.820312,-9.207031 6.28125,-8.84375 5.75,-8.488281 5.300781,-8.039062 4.9375,-7.5 4.582031,-6.96875 4.40625,-6.332031 4.40625,-5.59375 Z m 0,0"
               id="path92" />
          </g>
        </g>
      </g>
      <g
         fill="#ffffff"
         fill-opacity="1"
         id="g98">
        <g
           transform="translate(239.87847,30.589334)"
           id="g97">
          <g
             id="g96">
            <path
               d="M 6.234375,9.921875 C 5.679688,9.921875 5.082031,9.847656 4.4375,9.703125 3.789062,9.554688 3.175781,9.320312 2.59375,9 2.007812,8.675781 1.523438,8.234375 1.140625,7.671875 c -0.375,-0.554687 -0.5625,-1.246094 -0.5625,-2.078125 0,-0.980469 0.382813,-1.933594 1.15625,-2.859375 0.78125,-0.917969 1.863281,-1.792969 3.25,-2.625 C 4.242188,-0.109375 3.65625,-0.4375 3.21875,-0.875 2.789062,-1.320312 2.578125,-1.914062 2.578125,-2.65625 c 0,-0.664062 0.238281,-1.257812 0.71875,-1.78125 C 3.773438,-4.96875 4.488281,-5.519531 5.4375,-6.09375 4.507812,-6.539062 3.722656,-7.179688 3.078125,-8.015625 2.429688,-8.859375 2.109375,-9.957031 2.109375,-11.3125 c 0,-1.269531 0.335937,-2.414062 1.015625,-3.4375 0.6875,-1.03125 1.582031,-1.851562 2.6875,-2.46875 1.113281,-0.625 2.316406,-0.9375 3.609375,-0.9375 0.925781,0 1.796875,0.109375 2.609375,0.328125 0.53125,-0.8125 1.164062,-1.457031 1.90625,-1.9375 0.570312,-0.40625 1.171875,-0.722656 1.796875,-0.953125 0.632813,-0.226562 1.320313,-0.34375 2.0625,-0.34375 0.550781,0 1.035156,0.07813 1.453125,0.234375 0.414062,0.15625 0.625,0.402344 0.625,0.734375 0,0.21875 -0.08594,0.5 -0.25,0.84375 -0.167969,0.34375 -0.417969,0.65625 -0.75,0.9375 -0.335938,0.273438 -0.75,0.40625 -1.25,0.40625 -0.4375,0 -0.953125,-0.08203 -1.546875,-0.25 -0.59375,-0.164062 -1.40625,-0.414062 -2.4375,-0.75 -0.335937,0.261719 -0.695313,0.679688 -1.078125,1.25 1.15625,0.386719 2.125,1.027344 2.90625,1.921875 0.789062,0.898437 1.1875,2.121094 1.1875,3.671875 0,1 -0.234375,1.917969 -0.703125,2.75 -0.46875,0.835938 -1.074219,1.554688 -1.8125,2.15625 -0.742187,0.59375 -1.527344,1.058594 -2.359375,1.390625 -0.835938,0.335937 -1.621094,0.5 -2.359375,0.5 -0.554687,0 -1.136719,-0.046875 -1.75,-0.140625 C 7.066406,-5.5 6.488281,-5.65625 5.9375,-5.875 5.632812,-5.6875 5.382812,-5.488281 5.1875,-5.28125 5,-5.082031 4.90625,-4.828125 4.90625,-4.515625 c 0,0.21875 0.085938,0.445313 0.265625,0.671875 C 5.347656,-3.625 5.707031,-3.4375 6.25,-3.28125 6.789062,-3.125 7.609375,-3.007812 8.703125,-2.9375 L 13.5,-2.65625 c 1.84375,0.105469 3.21875,0.390625 4.125,0.859375 0.90625,0.460937 1.359375,1.320313 1.359375,2.578125 0,0.976562 -0.355469,2 -1.0625,3.0625 -0.699219,1.0625 -1.648437,2.050781 -2.84375,2.96875 -1.199219,0.925781 -2.5625,1.675781 -4.09375,2.25 -1.523437,0.570312 -3.105469,0.859375 -4.75,0.859375 z m -2.71875,-6.09375 c 0,0.957031 0.242187,1.722656 0.734375,2.296875 0.488281,0.570312 1.128906,0.988281 1.921875,1.25 0.800781,0.257812 1.671875,0.390625 2.609375,0.390625 1.664062,0 3.132812,-0.246094 4.40625,-0.734375 1.28125,-0.492188 2.28125,-1.117188 3,-1.875 0.71875,-0.761719 1.078125,-1.5625 1.078125,-2.40625 0,-0.574219 -0.246094,-1.027344 -0.734375,-1.359375 C 16.039062,1.054688 15.09375,0.851562 13.6875,0.78125 L 7.921875,0.5 C 7.484375,0.476562 7.066406,0.441406 6.671875,0.390625 6.285156,0.347656 5.925781,0.300781 5.59375,0.25 4.78125,0.820312 4.226562,1.410156 3.9375,2.015625 3.65625,2.628906 3.515625,3.234375 3.515625,3.828125 Z M 5.4375,-13.28125 c 0,0.742188 0.085938,1.53125 0.265625,2.375 0.1875,0.84375 0.472656,1.652344 0.859375,2.421875 0.394531,0.761719 0.890625,1.386719 1.484375,1.875 0.601563,0.492187 1.3125,0.734375 2.125,0.734375 0.8125,0 1.445313,-0.195312 1.90625,-0.59375 C 12.546875,-6.863281 12.875,-7.375 13.0625,-8 c 0.195312,-0.632812 0.296875,-1.3125 0.296875,-2.03125 0,-0.78125 -0.117187,-1.628906 -0.34375,-2.546875 -0.230469,-0.925781 -0.5625,-1.78125 -1,-2.5625 -0.4375,-0.789063 -0.976563,-1.421875 -1.609375,-1.890625 C 9.769531,-17.5 9.046875,-17.695312 8.234375,-17.625 c -1.074219,0.125 -1.808594,0.617188 -2.203125,1.46875 -0.398438,0.84375 -0.59375,1.804688 -0.59375,2.875 z m 0,0"
               id="path95" />
          </g>
        </g>
      </g>
      <g
         fill="#ffffff"
         fill-opacity="1"
         id="g101">
        <g
           transform="translate(258.28579,30.589334)"
           id="g100">
          <g
             id="g99">
            <path
               d="m 9.59375,0.359375 c -1,0 -1.996094,-0.179687 -2.984375,-0.53125 -0.992187,-0.363281 -1.90625,-0.898437 -2.75,-1.609375 -0.835937,-0.71875 -1.5,-1.613281 -2,-2.6875 -0.5,-1.082031 -0.75,-2.347656 -0.75,-3.796875 0,-1.53125 0.265625,-2.90625 0.796875,-4.125 0.539062,-1.21875 1.265625,-2.253906 2.171875,-3.109375 0.90625,-0.863281 1.914063,-1.519531 3.03125,-1.96875 1.113281,-0.457031 2.253906,-0.6875 3.421875,-0.6875 1.625,0 2.984375,0.324219 4.078125,0.96875 1.101563,0.648438 1.929687,1.460938 2.484375,2.4375 0.5625,0.980469 0.84375,1.996094 0.84375,3.046875 H 4.375 c -0.03125,0.1875 -0.054688,0.382813 -0.0625,0.578125 -0.011719,0.1875 -0.015625,0.375 -0.015625,0.5625 0,1.554688 0.300781,2.9375 0.90625,4.15625 0.613281,1.21875 1.472656,2.167969 2.578125,2.84375 1.113281,0.679688 2.421875,1.015625 3.921875,1.015625 1.34375,0 2.523437,-0.257813 3.546875,-0.78125 1.03125,-0.53125 1.914062,-1.210937 2.65625,-2.046875 l 0.328125,0.359375 C 17.679688,-4.179688 17,-3.351562 16.1875,-2.53125 c -0.8125,0.824219 -1.773438,1.511719 -2.875,2.0625 -1.09375,0.5507812 -2.335938,0.828125 -3.71875,0.828125 z M 4.40625,-12.21875 h 9.921875 C 14.179688,-13.195312 13.875,-14.082031 13.40625,-14.875 c -0.460938,-0.800781 -1.03125,-1.441406 -1.71875,-1.921875 -0.679688,-0.476563 -1.433594,-0.71875 -2.265625,-0.71875 -1,-0.01953 -1.851563,0.21875 -2.546875,0.71875 -0.6875,0.5 -1.234375,1.15625 -1.640625,1.96875 -0.40625,0.8125 -0.683594,1.683594 -0.828125,2.609375 z m 0,0"
               id="path98" />
          </g>
        </g>
      </g>
      <g
         fill="#ffffff"
         fill-opacity="1"
         id="g104">
        <g
           transform="translate(276.69313,30.589334)"
           id="g103">
          <g
             id="g102">
            <path
               d="M 1,0 V -0.5 C 1.59375,-0.6875 1.976562,-1.082031 2.15625,-1.6875 2.34375,-2.300781 2.4375,-3.253906 2.4375,-4.546875 v -8.234375 c 0,-1.050781 -0.125,-1.742188 -0.375,-2.078125 C 1.8125,-15.191406 1.457031,-15.457031 1,-15.65625 v -0.5 l 4.734375,-2.078125 0.359375,0.296875 v 3 c 0.976562,-0.8125 2.097656,-1.550781 3.359375,-2.21875 1.269531,-0.664062 2.597656,-1 3.984375,-1 1.257812,0 2.296875,0.261719 3.109375,0.78125 0.8125,0.511719 1.382813,1.339844 1.71875,2.484375 0.976563,-0.8125 2.101563,-1.554687 3.375,-2.234375 1.28125,-0.6875 2.625,-1.03125 4.03125,-1.03125 1.65625,0 2.925781,0.460938 3.8125,1.375 0.894531,0.917969 1.34375,2.429688 1.34375,4.53125 v 7.703125 c 0,1.292969 0.08594,2.246094 0.265625,2.859375 0.1875,0.605469 0.578125,1 1.171875,1.1875 V 0 H 25.75 v -0.5 c 0.59375,-0.1875 0.976562,-0.582031 1.15625,-1.1875 0.1875,-0.613281 0.28125,-1.566406 0.28125,-2.859375 v -7.0625 c 0,-1.613281 -0.28125,-2.867187 -0.84375,-3.765625 -0.5625,-0.894531 -1.511719,-1.34375 -2.84375,-1.34375 -0.84375,0 -1.671875,0.199219 -2.484375,0.59375 -0.8125,0.386719 -1.695313,0.964844 -2.640625,1.734375 0.144531,0.636719 0.21875,1.351563 0.21875,2.140625 v 7.703125 c 0,1.292969 0.08594,2.246094 0.265625,2.859375 0.175781,0.605469 0.5625,1 1.15625,1.1875 V 0 H 13.5 v -0.5 c 0.59375,-0.1875 0.976562,-0.582031 1.15625,-1.1875 0.1875,-0.613281 0.28125,-1.566406 0.28125,-2.859375 v -7.0625 c 0,-1.613281 -0.28125,-2.867187 -0.84375,-3.765625 -0.5625,-0.894531 -1.511719,-1.34375 -2.84375,-1.34375 -0.84375,0 -1.671875,0.203125 -2.484375,0.609375 -0.804687,0.40625 -1.695313,1 -2.671875,1.78125 v 9.78125 c 0,1.292969 0.085938,2.246094 0.265625,2.859375 0.175781,0.605469 0.5625,1 1.15625,1.1875 V 0 Z m 0,0"
               id="path101" />
          </g>
        </g>
      </g>
    </g>
  </g>
  <g
     clip-path="url(#84c1afd584)"
     id="g107"
     transform="matrix(1.2906058,0,0,1.2906058,-10.676162,-33.818382)">
    <path
       fill="#ffffff"
       d="m 105.33594,180.94141 c 5.35547,-3.46485 13.20703,-7.0625 22.88281,-10.19141 0.52344,1.08203 0.9375,1.92969 1.9375,2.94531 -10.35547,2.08203 -17.76953,4.38672 -24.82031,7.2461 z m 115.55468,-16.42188 c 21.67969,3.62109 39.21094,10.23047 48.77735,16.42188 -12.6875,-5.14454 -30.80469,-9.3086 -52.8711,-11.35157 1.60157,-1.62109 2.61329,-2.95312 4.09375,-5.07031 z m 0,0"
       fill-opacity="1"
       fill-rule="evenodd"
       id="path106" />
  </g>
  <path
     fill="#ffffff"
     d="m 219.23316,168.70086 c 13.65219,-3.72562 22.41923,-16.10232 25.08111,-27.98497 2.29889,-10.25427 -15.18983,-14.22187 -11.7062,0.50918 1.13432,4.78432 -0.0353,18.38609 -13.37491,27.47579 z m 0,0"
     fill-opacity="1"
     fill-rule="evenodd"
     id="path107"
     style="stroke-width:1.29061" />
  <path
     fill="#ffffff"
     d="m 207.1791,165.06599 c -11.11635,-8.75192 -14.36807,-23.56868 -12.19017,-35.54712 1.88045,-10.33997 19.53553,-7.17395 10.58196,5.03135 -2.90387,3.96256 -7.13363,16.94928 1.60821,30.51577 z m 0,0"
     fill-opacity="1"
     fill-rule="evenodd"
     id="path108"
     style="stroke-width:1.29061" />
  <g
     clip-path="url(#0a8d85f369)"
     id="g109"
     transform="matrix(1.2906058,0,0,1.2906058,-10.676162,-33.818382)">
    <path
       fill="#ffffff"
       d="m 180.24219,130.0625 c 3.80468,0 6.88672,-3.08203 6.88672,-6.88281 0,-3.80469 -3.08204,-6.88672 -6.88672,-6.88672 -3.80078,0 -6.88282,3.08203 -6.88282,6.88672 0,3.80078 3.08204,6.88281 6.88282,6.88281 z m 0,0"
       fill-opacity="1"
       fill-rule="evenodd"
       id="path109" />
  </g>
  <path
     fill="#ffffff"
     d="m 166.57543,190.81257 c 4.59779,0 8.3234,-3.72562 8.3234,-8.3234 0,-4.59274 -3.72561,-8.31836 -8.3234,-8.31836 -4.59274,0 -8.31836,3.72562 -8.31836,8.31836 0,4.59778 3.72562,8.3234 8.31836,8.3234 z m 114.54631,-31.89208 c -18.48692,45.93246 -43.58315,34.69511 -65.44783,24.97019 -29.5579,-13.14804 -36.1773,-1.08894 4.66836,10.51643 -71.66391,-4.81457 -38.37031,-38.78876 -2.08715,-21.05301 18.90536,7.61256 40.22052,23.32669 62.86662,-14.43361 z m 0,0"
     fill-opacity="1"
     fill-rule="evenodd"
     id="path110"
     style="stroke-width:1.29061" />
</svg>
